<svg xmlns="http://www.w3.org/2000/svg" viewBox="0 0 512 512"><rect width="512" height="512" rx="100" fill="#0F172A"/><rect x="16" y="16" width="480" height="480" rx="90" fill="#1E293B"/><path d="M110 310 L140 230 Q150 205 175 205 L337 205 Q362 205 372 230 L402 310" fill="none" stroke="#94A3B8" stroke-width="8" stroke-linecap="round"/><rect x="100" y="305" width="312" height="80" rx="16" fill="none" stroke="#94A3B8" stroke-width="8"/><circle cx="165" cy="385" r="26" fill="none" stroke="#94A3B8" stroke-width="8"/><circle cx="347" cy="385" r="26" fill="none" stroke="#94A3B8" stroke-width="8"/><path d="M278 100 L232 230 L278 230 L222 360" fill="none" stroke="#F59E0B" stroke-width="12" stroke-linecap="round" stroke-linejoin="round"/><circle cx="222" cy="360" r="8" fill="#F59E0B"/><path d="M360 140 Q400 180 360 220" fill="none" stroke="#22C55E" stroke-width="6" opacity=".7"/><path d="M380 120 Q430 180 380 240" fill="none" stroke="#22C55E" stroke-width="6" opacity=".5"/><text x="256" y="465" text-anchor="middle" fill="#F59E0B" font-family="Arial" font-weight="800" font-size="42">AutoDiag Pro</text></svg>
